<mxfile modified="2022-05-20T01:25:41.419Z" host="app.diagrams.net" agent="5.0 (Windows NT 10.0; Win64; x64) AppleWebKit/537.36 (KHTML, like Gecko) Chrome/101.0.4951.54 Safari/537.36" etag="D0wKjqPK2JlvAA65WlUk" compressed="false" version="18.0.8" type="google">
  <diagram id="gWLzc8HoWrIiA_OTBhHQ" name="Functionality/System Logical Module/Reseller Information">
    <mxGraphModel grid="1" page="1" gridSize="10" guides="1" tooltips="1" connect="1" arrows="1" fold="1" pageScale="1" pageWidth="827" pageHeight="1169" math="0" shadow="0">
      <root>
        <mxCell id="sBA49_EScaN9L8MnfF1u-0" />
        <mxCell id="mp-YWVq82NQ0kQUVbtlE-1" value="Notes" parent="sBA49_EScaN9L8MnfF1u-0" />
        <mxCell id="mp-YWVq82NQ0kQUVbtlE-0" value="Information including System Hoster Name, &lt;br&gt;Contact channel information, etc.&lt;br&gt;&lt;br&gt;&lt;i&gt;Note: Can also provide an alternate System Title and Description.&lt;/i&gt;" style="shape=note;whiteSpace=wrap;html=1;size=14;verticalAlign=top;align=left;spacingTop=-6;strokeWidth=1;fillColor=none;fontSize=12;" parent="mp-YWVq82NQ0kQUVbtlE-1" vertex="1">
          <mxGeometry x="400" y="300" width="280" height="70" as="geometry" />
        </mxCell>
        <mxCell id="3LA0_RX8NiAufR82tXQC-1" value="Note that a service may be Sponsored and Developed by one Organisation, and the service reused and distributed by another organisation, with or without custom logical modules." style="shape=note;whiteSpace=wrap;html=1;size=14;verticalAlign=top;align=left;spacingTop=-6;strokeWidth=1;fillColor=none;fontSize=12;" parent="mp-YWVq82NQ0kQUVbtlE-1" vertex="1">
          <mxGeometry x="400" y="200" width="280" height="60" as="geometry" />
        </mxCell>
        <mxCell id="SFFmcM6Vrw80OzDwDq3C-1" value="Diagram/Use Cases" parent="sBA49_EScaN9L8MnfF1u-0" />
        <mxCell id="sBA49_EScaN9L8MnfF1u-4" value="Edit Sys Host&lt;br style=&quot;font-size: 12px&quot;&gt;Information" style="ellipse;whiteSpace=wrap;html=1;comic=1;strokeColor=#82b366;strokeWidth=2;fillColor=none;fontSize=12;align=center;" parent="SFFmcM6Vrw80OzDwDq3C-1" vertex="1">
          <mxGeometry x="240" y="280" width="120" height="40" as="geometry" />
        </mxCell>
        <mxCell id="sBA49_EScaN9L8MnfF1u-5" value="Create Sys Hoster&lt;br style=&quot;font-size: 12px&quot;&gt;Information" style="ellipse;whiteSpace=wrap;html=1;comic=1;strokeColor=#82b366;strokeWidth=2;fillColor=none;fontSize=12;align=center;" parent="SFFmcM6Vrw80OzDwDq3C-1" vertex="1">
          <mxGeometry x="240" y="200" width="120" height="40" as="geometry" />
        </mxCell>
        <mxCell id="sBA49_EScaN9L8MnfF1u-6" value="View Sys Host&lt;br style=&quot;font-size: 12px&quot;&gt;Information" style="ellipse;whiteSpace=wrap;html=1;comic=1;strokeColor=#82b366;strokeWidth=2;fillColor=none;fontSize=12;align=center;" parent="SFFmcM6Vrw80OzDwDq3C-1" vertex="1">
          <mxGeometry x="240" y="370" width="120" height="40" as="geometry" />
        </mxCell>
        <mxCell id="sBA49_EScaN9L8MnfF1u-7" value="Developer" style="shape=umlActor;verticalLabelPosition=bottom;labelBackgroundColor=#ffffff;verticalAlign=top;html=1;comic=0;strokeColor=#000000;strokeWidth=1;fillColor=none;gradientColor=#ffffff;fontSize=12;align=center;" parent="SFFmcM6Vrw80OzDwDq3C-1" vertex="1">
          <mxGeometry x="130" y="230" width="20" height="40" as="geometry" />
        </mxCell>
        <mxCell id="sBA49_EScaN9L8MnfF1u-8" value="User" style="shape=umlActor;verticalLabelPosition=bottom;labelBackgroundColor=#ffffff;verticalAlign=top;html=1;comic=0;strokeColor=#000000;strokeWidth=1;fillColor=none;gradientColor=#ffffff;fontSize=12;align=center;" parent="SFFmcM6Vrw80OzDwDq3C-1" vertex="1">
          <mxGeometry x="130" y="370" width="20" height="40" as="geometry" />
        </mxCell>
        <mxCell id="sBA49_EScaN9L8MnfF1u-9" value="" style="endArrow=open;endFill=1;endSize=12;html=1;strokeColor=#000000;fontSize=12;entryX=0;entryY=0.5;entryDx=0;entryDy=0;" parent="SFFmcM6Vrw80OzDwDq3C-1" target="sBA49_EScaN9L8MnfF1u-5" edge="1">
          <mxGeometry width="160" relative="1" as="geometry">
            <mxPoint x="160" y="250" as="sourcePoint" />
            <mxPoint x="320" y="310" as="targetPoint" />
          </mxGeometry>
        </mxCell>
        <mxCell id="sBA49_EScaN9L8MnfF1u-10" value="" style="endArrow=open;endFill=1;endSize=12;html=1;strokeColor=#000000;fontSize=12;entryX=0;entryY=0.5;entryDx=0;entryDy=0;" parent="SFFmcM6Vrw80OzDwDq3C-1" target="sBA49_EScaN9L8MnfF1u-4" edge="1">
          <mxGeometry width="160" relative="1" as="geometry">
            <mxPoint x="160" y="280" as="sourcePoint" />
            <mxPoint x="240" y="290" as="targetPoint" />
          </mxGeometry>
        </mxCell>
        <mxCell id="sBA49_EScaN9L8MnfF1u-11" value="" style="endArrow=open;endFill=1;endSize=12;html=1;strokeColor=#000000;fontSize=12;entryX=0;entryY=0.5;entryDx=0;entryDy=0;" parent="SFFmcM6Vrw80OzDwDq3C-1" target="sBA49_EScaN9L8MnfF1u-6" edge="1">
          <mxGeometry width="160" relative="1" as="geometry">
            <mxPoint x="160" y="390" as="sourcePoint" />
            <mxPoint x="240" y="280" as="targetPoint" />
          </mxGeometry>
        </mxCell>
        <mxCell id="M9pi6jsFhLkaiY4Z7a9P-0" value="Title/Diagram" parent="sBA49_EScaN9L8MnfF1u-0" />
        <mxCell id="M9pi6jsFhLkaiY4Z7a9P-1" value="&lt;font style=&quot;font-size: 12px&quot;&gt;&lt;span style=&quot;font-size: 12px&quot;&gt;Diagram: Base System Logical Module - Functionality -&amp;nbsp;&lt;/span&gt;System System Hoster Information&lt;/font&gt;" style="text;strokeColor=none;fillColor=none;html=1;fontSize=12;fontStyle=2;verticalAlign=middle;align=left;shadow=0;glass=0;comic=0;opacity=30;fontColor=#808080;" parent="M9pi6jsFhLkaiY4Z7a9P-0" vertex="1">
          <mxGeometry x="120" y="430" width="520" height="20" as="geometry" />
        </mxCell>
        <mxCell id="sBA49_EScaN9L8MnfF1u-1" value="About" parent="sBA49_EScaN9L8MnfF1u-0" />
        <UserObject label="" tooltip="ABOUT&#xa;&#xa;Reseller information is obviously not apparently needed for most enterprise systems -- but it is actually useful if a lead agency is the Sponsor, but the system is being delivered by multiple agencies. &#xa;You present the Reseller information in Dialogues (as oppossed to the Sponsor)." id="pTDRF1BALwYRada9AKk5-0">
          <mxCell style="shape=image;html=1;verticalAlign=top;verticalLabelPosition=bottom;labelBackgroundColor=#ffffff;imageAspect=0;aspect=fixed;image=https://cdn1.iconfinder.com/data/icons/hawcons/32/699014-icon-28-information-128.png;shadow=0;dashed=0;fontFamily=Helvetica;fontSize=12;fontColor=#000000;align=center;strokeColor=#000000;fillColor=#505050;dashPattern=1 1;" parent="sBA49_EScaN9L8MnfF1u-1" vertex="1">
            <mxGeometry x="660" y="430" width="20" height="20" as="geometry" />
          </mxCell>
        </UserObject>
      </root>
    </mxGraphModel>
  </diagram>
</mxfile>
